# File created by Blade
# Date/Time:  Wed Apr 08 14:10:35 2015
# Frame Rate: 120.000 fps
#------------------------------------------------------
:FULLY-SPECIFIED
:DEGREES
846
root 1.135281 32.973154 14.376364 10.230078 1.336487 -1.089595
Spine -14.182522 -6.875198 0.850037
Head 10.854944 -2.957950 -0.665536
LeftShoulder -23.167044 41.539295 18.941930
LeftArm 58.864489 -58.671640 -61.217769
LeftForeArm 11.067974 -0.000000 -2.343541
LeftHand 1.812462 -0.000000 4.266753
LeftHandThumb1 -26.253704 0.000000 33.147579
RightShoulder -7.936356 2.562199 -31.308458
RightArm 11.958988 14.987835 38.563312
RightForeArm -15.691608 0.000000 1.072964
RightHand 0.459172 -0.000000 1.542394
RightHandThumb1 -24.326973 -0.000000 -32.862282
LeftUpLeg -5.565520 -7.555844 1.530434
LeftLeg -0.862436 -0.000000 0.000000
LeftFoot -7.527478 8.885227 -17.294036
LeftToeBase -6.166543 -0.000000 0.000000
RightUpLeg -3.605221 6.499483 3.479688
RightLeg -3.961652 -0.000000 0.000000
RightFoot -5.645644 -14.565919 6.980806
RightToeBase -4.084120 -0.000000 0.000000
847
root 1.136287 32.972968 14.380057 10.209446 1.385976 -1.102654
Spine -14.158003 -6.891124 0.883886
Head 10.884559 -2.953146 -0.653962
LeftShoulder -23.152694 41.528786 18.956685
LeftArm 58.791503 -58.650382 -61.175338
LeftForeArm 11.106510 -0.000000 -2.311333
LeftHand 1.817092 -0.000000 4.250961
LeftHandThumb1 -26.253704 0.000000 33.147579
RightShoulder -7.937745 2.565085 -31.309372
RightArm 11.979837 15.002808 38.618209
RightForeArm -15.680410 -0.000000 1.100279
RightHand 0.432514 -0.000000 1.699034
RightHandThumb1 -24.326973 -0.000000 -32.862282
LeftUpLeg -5.561256 -7.570384 1.540523
LeftLeg -0.823766 -0.000000 0.000000
LeftFoot -7.545778 8.876628 -17.274767
LeftToeBase -6.281116 -0.000000 0.000000
RightUpLeg -3.577684 6.492942 3.498261
RightLeg -3.959734 -0.000000 0.000000
RightFoot -5.635423 -14.596995 6.956697
RightToeBase -4.091112 -0.000000 0.000000
848
root 1.137416 32.973301 14.384320 10.179497 1.438846 -1.113035
Spine -14.123661 -6.909410 0.919302
Head 10.921120 -2.936161 -0.656760
LeftShoulder -23.172620 41.553365 18.920036
LeftArm 58.840346 -58.662733 -61.218808
LeftForeArm 11.134070 -0.000000 -2.313171
LeftHand 1.791781 -0.000000 4.305464
LeftHandThumb1 -26.253704 0.000000 33.147579
RightShoulder -7.928531 2.577183 -31.304346
RightArm 11.982741 15.003584 38.638969
RightForeArm -15.696632 -0.000000 1.104930
RightHand 0.437975 -0.000000 1.664904
RightHandThumb1 -24.326973 -0.000000 -32.862282
LeftUpLeg -5.546672 -7.590773 1.548752
LeftLeg -0.784928 -0.000000 0.000000
LeftFoot -7.569595 8.855616 -17.253016
LeftToeBase -6.274302 -0.000000 0.000000
RightUpLeg -3.559964 6.376609 3.524837
RightLeg -3.925057 -0.000000 0.000000
RightFoot -5.754758 -14.553637 7.146626
RightToeBase -3.834868 -0.000000 0.000000
849
root 1.138223 32.972994 14.388726 10.150255 1.491091 -1.119062
Spine -14.092099 -6.937658 0.947169
Head 10.965944 -2.916811 -0.663735
LeftShoulder -23.174256 41.566598 18.907425
LeftArm 58.775705 -58.655196 -61.157488
LeftForeArm 11.169693 0.000000 -2.312308
LeftHand 1.854196 -0.000000 4.280209
LeftHandThumb1 -26.253704 0.000000 33.147579
RightShoulder -7.918437 2.629940 -31.312153
RightArm 11.973473 14.963635 38.675527
RightForeArm -15.726036 -0.000000 1.100413
RightHand 0.307196 -0.000000 1.696806
RightHandThumb1 -24.326973 -0.000000 -32.862282
LeftUpLeg -5.525502 -7.608086 1.552788
LeftLeg -0.762957 -0.000000 0.000000
LeftFoot -7.586843 8.836810 -17.262905
LeftToeBase -6.344412 -0.000000 0.000000
RightUpLeg -3.524619 6.335324 3.545580
RightLeg -3.907147 -0.000000 0.000000
RightFoot -5.678816 -14.545696 6.975645
RightToeBase -4.033783 -0.000000 0.000000
850
root 1.140041 32.973313 14.393115 10.122110 1.522274 -1.118921
Spine -14.062742 -6.938212 0.959932
Head 11.004588 -2.898909 -0.657563
LeftShoulder -23.161732 41.591407 18.903656
LeftArm 58.769471 -58.667567 -61.174245
LeftForeArm 11.242409 0.000000 -2.286186
LeftHand 1.854645 -0.000000 4.284539
LeftHandThumb1 -26.253704 0.000000 33.147579
RightShoulder -7.911655 2.667622 -31.319026
RightArm 11.968993 14.972745 38.726393
RightForeArm -15.749647 -0.000000 1.089478
RightHand 0.348568 -0.000000 1.656678
RightHandThumb1 -24.326973 -0.000000 -32.862282
LeftUpLeg -5.495118 -7.601877 1.543096
LeftLeg -0.758996 -0.000000 0.000000
LeftFoot -7.581346 8.832424 -17.248927
LeftToeBase -6.417031 -0.000000 0.000000
RightUpLeg -3.496507 6.288612 3.554958
RightLeg -3.899260 -0.000000 0.000000
RightFoot -5.759233 -14.574099 7.093930
RightToeBase -3.808859 -0.000000 0.000000
